<svg width="20" height="28" viewBox="0 0 20 28" fill="none" xmlns="http://www.w3.org/2000/svg">
<path d="M2.2999 0C1.9286 0 1.5725 0.1475 1.30995 0.410051C1.0474 0.672601 0.899902 1.0287 0.899902 1.4V26.6C0.899902 26.9713 1.0474 27.3274 1.30995 27.59C1.5725 27.8525 1.9286 28 2.2999 28H17.6999C18.0712 28 18.4273 27.8525 18.6899 27.59C18.9524 27.3274 19.0999 26.9713 19.0999 26.6V1.4C19.0999 1.0287 18.9524 0.672601 18.6899 0.410051C18.4273 0.1475 18.0712 0 17.6999 0L2.2999 0ZM3.6999 2.8H16.3758V24.08H12.0554C12.4026 23.9257 12.7478 23.7454 13.0782 23.513L13.0793 23.5119L13.0805 23.5113C13.2927 23.3627 13.489 23.1926 13.6662 23.0037L12.864 22.1315C12.7478 22.2566 12.6106 22.3723 12.4586 22.4804H12.458C12.0585 22.7618 11.5945 22.9737 11.102 23.1557L11.3932 24.08H10.1934L10.0567 23.4836C9.34358 23.6754 8.6139 23.8216 7.87582 23.9456L7.89486 24.08H3.6999V2.8ZM11.6799 3.9172C10.1847 3.9172 8.9597 5.13884 8.9597 6.62984C8.9597 7.20748 9.14394 7.7448 9.45642 8.18608L11.3478 11.4559C11.613 11.802 11.7894 11.7365 12.0097 11.438L14.0957 7.88704C14.1372 7.81016 14.1721 7.72988 14.1999 7.64708C14.3287 7.33236 14.4001 6.98908 14.4001 6.62984C14.4001 5.13884 13.1751 3.9172 11.6799 3.9172ZM11.6799 5.1884C11.8698 5.18699 12.058 5.22328 12.2338 5.29517C12.4095 5.36706 12.5692 5.47312 12.7037 5.6072C12.8381 5.74128 12.9446 5.90072 13.017 6.07626C13.0894 6.2518 13.1262 6.43997 13.1253 6.62984C13.1262 6.81971 13.0894 7.00788 13.017 7.18342C12.9446 7.35896 12.8381 7.5184 12.7037 7.65248C12.5692 7.78656 12.4095 7.89262 12.2338 7.96451C12.058 8.0364 11.8698 8.07269 11.6799 8.07128C11.49 8.07269 11.3018 8.0364 11.126 7.96451C10.9503 7.89262 10.7906 7.78656 10.6561 7.65248C10.5217 7.5184 10.4152 7.35896 10.3428 7.18342C10.2705 7.00788 10.2336 6.81971 10.2345 6.62984C10.2336 6.43994 10.2704 6.25175 10.3427 6.07617C10.4151 5.9006 10.5216 5.74113 10.656 5.60702C10.7905 5.47291 10.9502 5.36683 11.126 5.29492C11.3017 5.22301 11.49 5.18671 11.6799 5.18812M11.4234 12.2688C10.6526 12.3645 9.87586 12.5012 9.10726 12.7201L9.39678 13.9107C10.0948 13.7116 10.8186 13.5831 11.5536 13.4918L11.4234 12.2688ZM7.95702 13.132C7.73162 13.2322 7.50762 13.3476 7.2895 13.4837L7.28894 13.4848L7.28754 13.4854C6.98206 13.6777 6.66034 13.9216 6.3977 14.2761C6.2073 14.5331 6.05162 14.8582 6.0155 15.2426L7.1467 15.3678C7.15538 15.2774 7.20102 15.1586 7.2839 15.0466H7.28474V15.0461C7.41886 14.8652 7.61962 14.7 7.85846 14.5496H7.85902C8.0292 14.4446 8.20639 14.3515 8.38934 14.2708L7.95702 13.132ZM7.37434 15.9163L6.64074 16.8571C6.80395 17.0033 6.9824 17.1315 7.17302 17.2396L7.17526 17.2407L7.17806 17.2424C7.7627 17.5748 8.36498 17.7626 8.92358 17.9407L9.2453 16.7594C8.6867 16.5813 8.16002 16.4094 7.70838 16.1529C7.58904 16.086 7.47707 16.0067 7.37434 15.9163ZM10.3356 17.0915L10.0223 18.275L10.1707 18.321L10.3527 18.3789C10.9555 18.5749 11.5329 18.7844 12.0489 19.0744L12.5728 17.9819C11.9484 17.631 11.3008 17.4023 10.6764 17.1993L10.6747 17.1987L10.4877 17.1391L10.3356 17.0915ZM13.6371 18.8014L12.8335 19.6722C13.0233 19.878 13.1653 20.1258 13.2347 20.3815L13.2353 20.3832V20.3848C13.3179 20.6836 13.3185 21.035 13.2538 21.39L14.3693 21.628C14.4606 21.1268 14.4754 20.5766 14.3256 20.0337C14.1985 19.5737 13.9623 19.1508 13.6371 18.8014ZM8.5999 25.3148H11.3999V26.6H8.5999V25.3148Z" fill="#113870"/>
</svg>
