<svg width="26" height="26" viewBox="0 0 26 26" fill="none" xmlns="http://www.w3.org/2000/svg">
<path d="M12.125 4.25C11.8929 4.25 11.6704 4.34219 11.5063 4.50628C11.3422 4.67038 11.25 4.89294 11.25 5.125C11.25 5.35706 11.3422 5.57962 11.5063 5.74372C11.6704 5.90781 11.8929 6 12.125 6H13.875C14.1071 6 14.3296 5.90781 14.4937 5.74372C14.6578 5.57962 14.75 5.35706 14.75 5.125C14.75 4.89294 14.6578 4.67038 14.4937 4.50628C14.3296 4.34219 14.1071 4.25 13.875 4.25H12.125ZM7.575 0.75C6.90854 0.75 6.24861 0.881269 5.63288 1.13631C5.01715 1.39135 4.45769 1.76518 3.98643 2.23643C3.03469 3.18818 2.5 4.47903 2.5 5.825V9.5H1.625C1.39294 9.5 1.17038 9.59219 1.00628 9.75628C0.842187 9.92038 0.75 10.1429 0.75 10.375C0.75 10.6071 0.842187 10.8296 1.00628 10.9937C1.17038 11.1578 1.39294 11.25 1.625 11.25H2.5V22.975C2.5 23.5784 2.73969 24.157 3.16633 24.5837C3.59298 25.0103 4.17163 25.25 4.775 25.25H7.225C7.52376 25.25 7.81959 25.1912 8.0956 25.0768C8.37162 24.9625 8.62241 24.7949 8.83367 24.5837C9.04492 24.3724 9.2125 24.1216 9.32683 23.8456C9.44116 23.5696 9.5 23.2738 9.5 22.975V21.75H16.5V22.975C16.5 23.5784 16.7397 24.157 17.1663 24.5837C17.593 25.0103 18.1716 25.25 18.775 25.25H21.225C21.8284 25.25 22.407 25.0103 22.8337 24.5837C23.2603 24.157 23.5 23.5784 23.5 22.975V11.25H24.375C24.6071 11.25 24.8296 11.1578 24.9937 10.9937C25.1578 10.8296 25.25 10.6071 25.25 10.375C25.25 10.1429 25.1578 9.92038 24.9937 9.75628C24.8296 9.59219 24.6071 9.5 24.375 9.5H23.5V5.825C23.5 4.47903 22.9653 3.18818 22.0136 2.23643C21.0618 1.28469 19.771 0.75 18.425 0.75H7.575ZM21.75 5.825V13H4.25V5.825C4.25 3.9875 5.7375 2.5 7.575 2.5H18.425C20.2625 2.5 21.75 3.9875 21.75 5.825ZM21.75 21.75V22.975C21.75 23.0439 21.7364 23.1122 21.71 23.1759C21.6837 23.2396 21.645 23.2975 21.5962 23.3462C21.5475 23.395 21.4896 23.4337 21.4259 23.46C21.3622 23.4864 21.2939 23.5 21.225 23.5H18.775C18.7061 23.5 18.6378 23.4864 18.5741 23.46C18.5104 23.4337 18.4525 23.395 18.4038 23.3462C18.355 23.2975 18.3163 23.2396 18.29 23.1759C18.2636 23.1122 18.25 23.0439 18.25 22.975V21.75H21.75ZM7.75 21.75V22.975C7.75 23.0439 7.73642 23.1122 7.71004 23.1759C7.68365 23.2396 7.64498 23.2975 7.59623 23.3462C7.54748 23.395 7.4896 23.4337 7.42591 23.46C7.36221 23.4864 7.29394 23.5 7.225 23.5H4.775C4.70606 23.5 4.63779 23.4864 4.57409 23.46C4.5104 23.4337 4.45252 23.395 4.40377 23.3462C4.35502 23.2975 4.31635 23.2396 4.28996 23.1759C4.26358 23.1122 4.25 23.0439 4.25 22.975V21.75H7.75ZM10.375 16.9375C10.375 17.1099 10.3411 17.2805 10.2751 17.4398C10.2091 17.599 10.1125 17.7437 9.99058 17.8656C9.8687 17.9875 9.72401 18.0841 9.56477 18.1501C9.40553 18.2161 9.23486 18.25 9.0625 18.25C8.89014 18.25 8.71947 18.2161 8.56023 18.1501C8.40099 18.0841 8.2563 17.9875 8.13442 17.8656C8.01255 17.7437 7.91587 17.599 7.84991 17.4398C7.78395 17.2805 7.75 17.1099 7.75 16.9375C7.75 16.5894 7.88828 16.2556 8.13442 16.0094C8.38056 15.7633 8.7144 15.625 9.0625 15.625C9.4106 15.625 9.74444 15.7633 9.99058 16.0094C10.2367 16.2556 10.375 16.5894 10.375 16.9375ZM16.9375 18.25C16.5894 18.25 16.2556 18.1117 16.0094 17.8656C15.7633 17.6194 15.625 17.2856 15.625 16.9375C15.625 16.5894 15.7633 16.2556 16.0094 16.0094C16.2556 15.7633 16.5894 15.625 16.9375 15.625C17.2856 15.625 17.6194 15.7633 17.8656 16.0094C18.1117 16.2556 18.25 16.5894 18.25 16.9375C18.25 17.2856 18.1117 17.6194 17.8656 17.8656C17.6194 18.1117 17.2856 18.25 16.9375 18.25Z" fill="#113870"/>
</svg>
